<?xml version="1.0" encoding="iso-8859-1"?>
<!-- Generator: Adobe Illustrator 19.0.0, SVG Export Plug-In . SVG Version: 6.00 Build 0)  -->
<svg xmlns="http://www.w3.org/2000/svg" xmlns:xlink="http://www.w3.org/1999/xlink" version="1.1" id="Capa_1" x="0px" y="0px" viewBox="0 0 511.996 511.996" style="enable-background:new 0 0 511.996 511.996;" xml:space="preserve">
<circle style="fill:#F7F7F7;" cx="255.997" cy="255.997" r="255.997"/>
<path style="fill:#D9D8DB;" d="M395.526,116.467C359.817,80.761,310.487,58.676,256,58.676C147.02,58.676,58.676,147.021,58.676,256  c0,54.488,22.085,103.818,57.792,139.526l115.331,115.331c73.328,6.923,149.072-17.688,205.221-73.837s80.76-131.893,73.837-205.221  L395.526,116.467z"/>
<circle style="fill:#2D2E30;" cx="255.997" cy="255.997" r="197.32"/>
<circle style="fill:#3C6131;" cx="255.997" cy="255.997" r="180.268"/>
<path style="fill:#2B4523;" d="M384.029,129.11L256,256l156.786,89.004C412.785,345.004,483.056,237.076,384.029,129.11z"/>
<path style="fill:#314F28;" d="M256,256l156.786,89.004c0,0-24.576,61.765-109.732,85.042L256,256z"/>
<path style="fill:#37592D;" d="M256,256l47.054,174.047c0,0-63.967,15.356-121.191-9.685L256,256z"/>
<g>
	<path style="fill:#8DC652;" d="M297.416,297.416c-11.063,11.063-25.771,17.156-41.417,17.155   c-32.296,0-58.572-26.275-58.572-58.572c-0.001-15.646,6.092-30.354,17.155-41.417s25.771-17.156,41.417-17.155   c32.296,0,58.572,26.275,58.572,58.572C314.572,271.646,308.479,286.354,297.416,297.416z M219.409,219.409   c-9.774,9.774-15.156,22.769-15.156,36.592c0.001,28.534,23.214,51.748,51.748,51.748c13.822,0,26.818-5.384,36.592-15.156   c9.774-9.774,15.156-22.769,15.156-36.592c-0.001-28.534-23.214-51.748-51.748-51.748   C242.177,204.251,229.181,209.635,219.409,219.409z"/>
	<path style="fill:#8DC652;" d="M341.647,341.647c-22.878,22.878-53.295,35.476-85.647,35.475   c-32.352,0.001-62.769-12.598-85.647-35.475c-22.878-22.878-35.476-53.295-35.475-85.647   c-0.001-32.352,12.598-62.769,35.475-85.647s53.295-35.476,85.647-35.475c32.352-0.001,62.769,12.598,85.647,35.475   c22.878,22.878,35.476,53.295,35.475,85.647C377.123,288.353,364.524,318.77,341.647,341.647z M175.178,175.178   C153.589,196.766,141.7,225.469,141.7,256s11.889,59.234,33.477,80.823s50.292,33.477,80.823,33.477s59.234-11.889,80.823-33.477   s33.477-50.292,33.477-80.823s-11.889-59.234-33.477-80.823S286.532,141.7,256,141.7S196.766,153.588,175.178,175.178z"/>
	<path style="fill:#8DC652;" d="M385.878,385.878C351.186,420.57,305.061,439.675,256,439.675   c-101.279,0-183.676-82.397-183.676-183.676c0-49.061,19.107-95.187,53.797-129.878S206.938,72.324,256,72.324   c101.279,0,183.676,82.397,183.676,183.676C439.676,305.062,420.57,351.187,385.878,385.878z M130.946,130.946   C97.544,164.349,79.147,208.761,79.146,256C79.147,353.516,158.483,432.852,256,432.853c47.238-0.001,91.651-18.398,125.053-51.8   s51.799-77.815,51.8-125.053C432.852,158.483,353.516,79.147,256,79.146C208.761,79.147,164.349,97.544,130.946,130.946z"/>
</g>
<g>
</g>
<g>
</g>
<g>
</g>
<g>
</g>
<g>
</g>
<g>
</g>
<g>
</g>
<g>
</g>
<g>
</g>
<g>
</g>
<g>
</g>
<g>
</g>
<g>
</g>
<g>
</g>
<g>
</g>
</svg>
