<?xml version="1.0" encoding="iso-8859-1"?>
<!-- Generator: Adobe Illustrator 19.0.0, SVG Export Plug-In . SVG Version: 6.00 Build 0)  -->
<svg xmlns="http://www.w3.org/2000/svg" xmlns:xlink="http://www.w3.org/1999/xlink" version="1.1" id="Capa_1" x="0px" y="0px" viewBox="0 0 512.007 512.007" style="enable-background:new 0 0 512.007 512.007;" xml:space="preserve">
<circle style="fill:#57565C;" cx="256.003" cy="256.003" r="256.003"/>
<path style="fill:#3E3E42;" d="M395.658,116.351C359.917,80.608,310.541,58.5,256,58.5c-19.098,0-37.542,2.765-55.011,7.823v56.012  l-39.681-39.681C100.05,116.189,58.5,181.237,58.5,255.999c0,58.54,25.477,111.12,65.939,147.287l107.587,107.587  c7.895,0.733,15.888,1.126,23.976,1.126c141.385,0,256-114.615,256-256c0-8.259-0.406-16.421-1.171-24.478L395.658,116.351z"/>
<g>
	<path style="fill:#FFFFFF;" d="M256,58.5c-19.098,0-37.542,2.765-55.011,7.823V179c15.52-11.119,34.506-17.692,55.011-17.692   c52.214,0,94.692,42.48,94.692,94.692S308.215,350.692,256,350.692s-94.692-42.48-94.692-94.692V82.654   C100.05,116.189,58.5,181.237,58.5,256c0,109.076,88.423,197.5,197.5,197.5s197.5-88.424,197.5-197.5   C453.5,146.924,365.077,58.5,256,58.5z"/>
	<path style="fill:#FFFFFF;" d="M311.012,256c0-30.333-24.677-55.011-55.011-55.011c-30.335,0-55.011,24.679-55.011,55.011   s24.677,55.011,55.011,55.011C286.335,311.012,311.012,286.333,311.012,256z"/>
</g>
<g>
</g>
<g>
</g>
<g>
</g>
<g>
</g>
<g>
</g>
<g>
</g>
<g>
</g>
<g>
</g>
<g>
</g>
<g>
</g>
<g>
</g>
<g>
</g>
<g>
</g>
<g>
</g>
<g>
</g>
</svg>
