<?xml version="1.0" encoding="iso-8859-1"?>
<!-- Generator: Adobe Illustrator 19.0.0, SVG Export Plug-In . SVG Version: 6.00 Build 0)  -->
<svg xmlns="http://www.w3.org/2000/svg" xmlns:xlink="http://www.w3.org/1999/xlink" version="1.1" id="Capa_1" x="0px" y="0px" viewBox="0 0 512.007 512.007" style="enable-background:new 0 0 512.007 512.007;" xml:space="preserve">
<circle style="fill:#3E3E42;" cx="256.003" cy="256.003" r="256.003"/>
<path style="fill:#2D2E30;" d="M403.433,124.091c-30.132-34.06-73.05-58.422-126.521-64.514  C173.321,48.679,81.71,119.23,62.259,217.395c-0.753,0.753-23.572,100.51,53.771,177.961l-0.005,0.005L231.49,510.826  C239.558,511.592,247.732,512,256,512c141.385,0,256-114.615,256-256c0-8.271-0.408-16.446-1.175-24.516L403.433,124.091z"/>
<path style="fill:#ACACB2;" d="M256,58.476c-109.09,0-197.525,88.435-197.525,197.524c0,109.09,88.435,197.525,197.525,197.525  s197.525-88.435,197.525-197.525C453.524,146.911,365.089,58.476,256,58.476z M256,267.831c-6.534,0-11.831-5.297-11.831-11.832  c0-6.534,5.297-11.831,11.831-11.831c6.534,0,11.831,5.297,11.831,11.831C267.831,262.534,262.534,267.831,256,267.831z"/>
<path style="fill:#8A8A91;" d="M256,175.469c-44.476,0-80.531,36.054-80.531,80.531c0,44.476,36.054,80.53,80.531,80.53  s80.531-36.054,80.531-80.53C336.531,211.525,300.476,175.469,256,175.469z M256,267.831c-6.534,0-11.831-5.297-11.831-11.832  c0-6.534,5.297-11.831,11.831-11.831c6.534,0,11.831,5.297,11.831,11.831C267.831,262.534,262.534,267.831,256,267.831z"/>
<path style="fill:#C6C5CA;" d="M276.912,59.577l-19.086,184.775c1.228,0.191,2.38,0.572,3.453,1.11l98.767-157.379  C335.419,72.794,307.187,62.764,276.912,59.577z"/>
<path style="fill:#E1E1E3;" d="M247.846,247.459c0.926-0.885,1.997-1.608,3.173-2.157L172.606,76.908  c-19.637,9.16-37.523,21.442-53.005,36.227L247.846,247.459z"/>
<path style="fill:#C6C5CA;" d="M402.913,123.981L264.768,248.122c1.84,2.047,2.99,4.715,3.042,7.671l185.67-3.269  C452.626,203.134,433.653,158.167,402.913,123.981z"/>
<g>
	<path style="fill:#FFFFFF;" d="M259.066,244.649c0.579,0.157,1.137,0.356,1.679,0.596l74.982-170.001   c-9.067-4.005-18.496-7.334-28.218-9.954L259.066,244.649z"/>
	<path style="fill:#FFFFFF;" d="M263.632,264.972c-0.983,0.837-2.081,1.533-3.303,2.015l68.107,172.833   c20.397-8.044,39.124-19.394,55.542-33.374L263.632,264.972z"/>
	<path style="fill:#FFFFFF;" d="M265.883,249.596c0.933,1.426,1.536,3.066,1.776,4.831l184.048-24.837   c-3.954-29.572-14.436-57.061-29.971-80.987L265.883,249.596z"/>
</g>
<path style="fill:#C6C5CA;" d="M259.185,267.342c-0.941,0.264-1.915,0.442-2.936,0.464l3.909,185.665  c17.037-0.352,33.542-2.858,49.257-7.261L259.185,267.342z"/>
<g>
	<path style="fill:#FFFFFF;" d="M209.514,448.008l43.71-180.539c-1.273-0.308-2.462-0.814-3.538-1.495l-99.347,156.932   C168.305,434.304,188.238,442.875,209.514,448.008z"/>
	<path style="fill:#FFFFFF;" d="M244.169,256c0-0.792,0.084-1.563,0.234-2.311L62.259,217.395   c-2.474,12.486-3.783,25.393-3.783,38.605c0,56.527,23.751,107.503,61.81,143.508L247.89,264.576   C245.61,262.42,244.169,259.386,244.169,256z"/>
</g>
<path style="fill:#8A8A91;" d="M296.963,296.963c-10.942,10.941-25.49,16.966-40.962,16.967c-31.942,0-57.93-25.988-57.931-57.931  c0-15.473,6.025-30.02,16.967-40.962c10.941-10.941,25.49-16.967,40.962-16.968c31.941,0.001,57.929,25.989,57.931,57.931  C313.93,271.473,307.904,286.021,296.963,296.963z M217.456,217.456C207.16,227.752,201.489,241.44,201.49,256  c0,30.057,24.454,54.51,54.51,54.51c14.56,0,28.249-5.67,38.544-15.966s15.967-23.984,15.966-38.545  c0-30.057-24.454-54.51-54.51-54.51C241.44,201.489,227.751,207.16,217.456,217.456z"/>
<path style="fill:#FFFFFF;" d="M314.153,314.153C298.62,329.686,277.968,338.24,256,338.241c-45.347,0-82.24-36.894-82.24-82.24  c0-21.966,8.555-42.619,24.088-58.152C213.38,182.316,234.033,173.76,256,173.76c45.347,0.001,82.24,36.894,82.24,82.24  C338.24,277.967,329.685,298.62,314.153,314.153z M200.265,200.265c-14.888,14.888-23.087,34.681-23.086,55.735  c0,43.461,35.36,78.821,78.821,78.821c21.055,0,40.848-8.199,55.735-23.086c14.888-14.888,23.087-34.682,23.086-55.735  c0-43.461-35.36-78.821-78.821-78.821C234.946,177.178,215.152,185.377,200.265,200.265z"/>
<g>
	<path style="fill:#C6C5CA;" d="M332.954,332.954c-20.555,20.555-47.885,31.875-76.953,31.876c-29.069,0-56.4-11.32-76.954-31.876   S147.171,285.069,147.17,256c0-29.069,11.32-56.399,31.876-76.953S226.931,147.171,256,147.17   c29.069,0.001,56.399,11.321,76.954,31.876S364.829,226.931,364.83,256C364.829,285.07,353.509,312.399,332.954,332.954z    M181.464,181.464c-19.91,19.91-30.874,46.381-30.873,74.537c0,28.156,10.965,54.627,30.874,74.536   c19.91,19.909,46.38,30.874,74.536,30.874c28.157,0,54.627-10.964,74.537-30.873c19.91-19.91,30.874-46.381,30.873-74.537   c0.001-28.156-10.964-54.627-30.873-74.537c-19.91-19.91-46.381-30.874-74.537-30.873   C227.844,150.589,201.372,161.554,181.464,181.464z"/>
	<path style="fill:#C6C5CA;" d="M355.516,355.516c-26.582,26.582-61.924,41.221-99.515,41.221   c-77.603-0.001-140.736-63.134-140.737-140.737c0-37.592,14.639-72.934,41.221-99.515c26.581-26.581,61.924-41.221,99.516-41.221   c77.603,0.001,140.736,63.134,140.737,140.737C396.737,293.593,382.098,328.935,355.516,355.516z M158.902,158.902   c-25.936,25.936-40.22,60.419-40.219,97.099c0,75.716,61.6,137.317,137.318,137.318c36.68,0.001,71.163-14.283,97.099-40.219   c25.936-25.936,40.22-60.419,40.219-97.099c0.001-75.717-61.599-137.318-137.318-137.318   C219.321,118.682,184.838,132.966,158.902,158.902z"/>
</g>
<path style="fill:#ACACB2;" d="M375.929,375.929c-32.034,32.034-74.627,49.677-119.929,49.677  C162.481,425.605,86.395,349.52,86.394,256c0-45.302,17.642-87.894,49.677-119.929c32.033-32.033,74.627-49.677,119.929-49.677  c93.52,0.001,169.604,76.086,169.606,169.606C425.606,301.303,407.963,343.896,375.929,375.929z M138.488,138.488  C107.099,169.878,89.813,211.61,89.813,256c0,91.635,74.551,166.186,166.186,166.186c44.391,0,86.123-17.287,117.512-48.675  S422.188,300.39,422.186,256c0-91.636-74.551-166.186-166.186-166.186C211.61,89.813,169.878,107.1,138.488,138.488z"/>
<g>
</g>
<g>
</g>
<g>
</g>
<g>
</g>
<g>
</g>
<g>
</g>
<g>
</g>
<g>
</g>
<g>
</g>
<g>
</g>
<g>
</g>
<g>
</g>
<g>
</g>
<g>
</g>
<g>
</g>
</svg>
