<?xml version="1.0" encoding="iso-8859-1"?>
<!-- Generator: Adobe Illustrator 19.0.0, SVG Export Plug-In . SVG Version: 6.00 Build 0)  -->
<svg xmlns="http://www.w3.org/2000/svg" xmlns:xlink="http://www.w3.org/1999/xlink" version="1.1" id="Capa_1" x="0px" y="0px" viewBox="0 0 512.007 512.007" style="enable-background:new 0 0 512.007 512.007;" xml:space="preserve">
<circle style="fill:#5F98D1;" cx="256.003" cy="256.003" r="256.003"/>
<path style="fill:#3B74AD;" d="M394.344,117.656l-0.012,0.012C358.723,82.54,309.853,60.822,256,60.822  c-108.678,0-197.096,88.417-197.096,197.096c0,53.279,21.126,102.518,56.662,138.517l-0.009,0.009l114.231,114.231  c8.618,0.877,17.363,1.326,26.212,1.326c141.385,0,256-114.615,256-256c0-7.278-0.321-14.48-0.915-21.604L394.344,117.656z"/>
<g>
	<rect x="195.167" y="209.132" style="fill:#FFFFFF;" width="121.663" height="20.48"/>
	<path style="fill:#FFFFFF;" d="M203.279,235.693c0,0-1.216,17.641,4.866,35.282c5.854,16.977,8.298,33.362,7.933,47.044h-5.703   v13.788h91.249V318.02h-5.703c-0.363-13.682,2.08-30.067,7.934-47.044c6.084-17.641,4.866-35.282,4.866-35.282   C297.615,235.693,214.448,235.693,203.279,235.693z"/>
	<path style="fill:#FFFFFF;" d="M238.56,203.655h-7.3V148.5c0-2.46-2.001-4.462-4.461-4.462c-2.459,0-4.461,2.001-4.461,4.462   v55.155h-7.3V148.5c0-6.484,5.275-11.762,11.76-11.762c6.484,0,11.76,5.276,11.76,11.762L238.56,203.655L238.56,203.655z"/>
	<path style="fill:#FFFFFF;" d="M296.959,203.655h-7.3V148.5c0-2.46-2.001-4.462-4.461-4.462s-4.461,2.001-4.461,4.462v55.155h-7.3   V148.5c0-6.484,5.275-11.762,11.76-11.762s11.76,5.276,11.76,11.762V203.655z"/>
	<path style="fill:#FFFFFF;" d="M256,60.821c-108.678,0-197.097,88.417-197.097,197.097c0,85.878,54.872,161.275,136.543,187.617   c5.116,1.643,10.601-1.161,12.249-6.276c1.652-5.116-1.16-10.602-6.276-12.252c-73.6-23.738-123.05-91.689-123.05-169.089   c0-97.946,79.686-177.63,177.63-177.63s177.63,79.684,177.63,177.63c0,83.398-56.693,154.606-137.866,173.164   c-7.317,1.678-14.887-0.053-20.764-4.734c-5.889-4.693-9.267-11.684-9.267-19.182v-69.764h-19.466v69.764   c0,13.459,6.052,26,16.605,34.407c7.899,6.293,17.501,9.606,27.346,9.606c3.287,0,6.599-0.369,9.885-1.12   c42.794-9.784,81.63-34.091,109.353-68.445c28.142-34.871,43.64-78.8,43.64-123.697C453.097,149.239,364.678,60.821,256,60.821z"/>
</g>
<g>
</g>
<g>
</g>
<g>
</g>
<g>
</g>
<g>
</g>
<g>
</g>
<g>
</g>
<g>
</g>
<g>
</g>
<g>
</g>
<g>
</g>
<g>
</g>
<g>
</g>
<g>
</g>
<g>
</g>
</svg>
