<?xml version="1.0" encoding="iso-8859-1"?>
<!-- Generator: Adobe Illustrator 19.0.0, SVG Export Plug-In . SVG Version: 6.00 Build 0)  -->
<svg xmlns="http://www.w3.org/2000/svg" xmlns:xlink="http://www.w3.org/1999/xlink" version="1.1" id="Capa_1" x="0px" y="0px" viewBox="0 0 512 512" style="enable-background:new 0 0 512 512;" xml:space="preserve">
<circle style="fill:#F7F7F7;" cx="256" cy="256" r="256"/>
<path style="fill:#D9D8DB;" d="M67.178,200.633l17.639,17.639l18.76,18.76l254.004,254.003  c87.51-37.873,149.696-123.174,154.148-223.497l-66.907-66.907C340.705,96.517,171.295,96.517,67.178,200.633z"/>
<path style="fill:#5F98D1;" d="M340.931,304.522c-46.83-46.83-123.031-46.83-169.862,0l-36.399-36.399  c66.901-66.901,175.76-66.901,242.661,0L340.931,304.522z"/>
<path style="fill:#73A8DB;" d="M408.423,237.032c-84.047-84.045-220.799-84.045-304.846,0l-36.399-36.399  c104.118-104.116,273.528-104.116,377.645,0L408.423,237.032z"/>
<path style="fill:#497FC1;" d="M309.082,336.372c-29.316-29.316-76.848-29.316-106.165,0L256,389.454L309.082,336.372z"/>
<g>
</g>
<g>
</g>
<g>
</g>
<g>
</g>
<g>
</g>
<g>
</g>
<g>
</g>
<g>
</g>
<g>
</g>
<g>
</g>
<g>
</g>
<g>
</g>
<g>
</g>
<g>
</g>
<g>
</g>
</svg>
