<?xml version="1.0" encoding="iso-8859-1"?>
<!-- Generator: Adobe Illustrator 19.0.0, SVG Export Plug-In . SVG Version: 6.00 Build 0)  -->
<svg xmlns="http://www.w3.org/2000/svg" xmlns:xlink="http://www.w3.org/1999/xlink" version="1.1" id="Capa_1" x="0px" y="0px" viewBox="0 0 512 512" style="enable-background:new 0 0 512 512;" xml:space="preserve">
<circle style="fill:#F7F7F7;" cx="255.997" cy="255.997" r="255.997"/>
<path style="fill:#D9D8DB;" d="M383.342,108.468l-185.8,27.516v56.941l0,0v148.95h-45.426c-12.955,0-23.458,10.502-23.458,23.458  v14.741c0,6.477,2.625,12.341,6.87,16.586l115.274,115.275c1.729,0.035,3.46,0.066,5.198,0.066c141.385,0,256-114.616,256-256  c0-6.6-0.251-13.141-0.741-19.616L383.342,108.468z"/>
<path style="fill:#DF3A5C;" d="M197.542,135.983v56.941v148.95h-45.426c-12.955,0-23.458,10.502-23.458,23.458v14.742  c0,12.955,10.502,23.458,23.458,23.458h47.118c12.955,0,23.458-10.502,23.458-23.458v-7.371v-7.371V189.199l135.5-20.067v145.226  h-45.426c-12.955,0-23.458,10.502-23.458,23.458v14.741c0,12.955,10.502,23.458,23.458,23.458h47.118  c12.955,0,23.458-10.502,23.458-23.458v-7.371v-7.371V165.408v-56.941L197.542,135.983z"/>
<g>
</g>
<g>
</g>
<g>
</g>
<g>
</g>
<g>
</g>
<g>
</g>
<g>
</g>
<g>
</g>
<g>
</g>
<g>
</g>
<g>
</g>
<g>
</g>
<g>
</g>
<g>
</g>
<g>
</g>
</svg>
