<?xml version="1.0" encoding="iso-8859-1"?>
<!-- Generator: Adobe Illustrator 19.0.0, SVG Export Plug-In . SVG Version: 6.00 Build 0)  -->
<svg xmlns="http://www.w3.org/2000/svg" xmlns:xlink="http://www.w3.org/1999/xlink" version="1.1" id="Capa_1" x="0px" y="0px" viewBox="0 0 511.998 511.998" style="enable-background:new 0 0 511.998 511.998;" xml:space="preserve">
<circle style="fill:#EA971E;" cx="255.999" cy="255.999" r="255.999"/>
<path style="fill:#C27526;" d="M66.999,203.54l70.138,70.138c-6.523,11.101-12.137,23.14-16.69,35.949l26.737,26.737  c-0.002,0.086-0.013,0.171-0.013,0.258v46.768l127.902,127.902c127.816-9.415,229.533-112.673,236.531-241.148L445,203.54  l-189-74.932L66.999,203.54z"/>
<g>
	<path style="fill:#FFFFFF;" d="M153.445,250.166c-13.732,16.818-24.999,36.958-32.998,59.461   c8.603-1.639,17.441-2.537,26.463-2.537c2.191,0,4.364,0.084,6.534,0.184V250.166z"/>
	<path style="fill:#FFFFFF;" d="M355.982,247.822l-100.325,39.775l-90.805-36.001v56.678c35.725,4.574,67.734,22.535,90.704,48.602   c26.713-29.501,65.155-48.266,107.325-48.266c9.792,0,19.381,1.017,28.671,2.94C383.159,287.225,370.985,265.559,355.982,247.822z"/>
	<path style="fill:#FFFFFF;" d="M256,128.61L66.999,203.54l88.951,35.266l82.735-34.267c-0.048-0.33-0.08-0.661-0.08-0.998   c0-6.037,7.787-10.932,17.396-10.932c9.606,0,17.396,4.894,17.396,10.932s-7.789,10.932-17.396,10.932   c-3.005,0-5.832-0.479-8.298-1.322l-76.521,31.694L256,278.473l189-74.932L256,128.61z"/>
	<path style="fill:#FFFFFF;" d="M169.984,336.621c0-6.3-5.107-11.407-11.407-11.407c-6.3,0-11.407,5.107-11.407,11.407v46.768   h22.813L169.984,336.621L169.984,336.621z"/>
</g>
<g>
</g>
<g>
</g>
<g>
</g>
<g>
</g>
<g>
</g>
<g>
</g>
<g>
</g>
<g>
</g>
<g>
</g>
<g>
</g>
<g>
</g>
<g>
</g>
<g>
</g>
<g>
</g>
<g>
</g>
</svg>
