<?xml version="1.0" encoding="iso-8859-1"?>
<!-- Generator: Adobe Illustrator 19.0.0, SVG Export Plug-In . SVG Version: 6.00 Build 0)  -->
<svg xmlns="http://www.w3.org/2000/svg" xmlns:xlink="http://www.w3.org/1999/xlink" version="1.1" id="Capa_1" x="0px" y="0px" viewBox="0 0 512 512" style="enable-background:new 0 0 512 512;" xml:space="preserve">
<circle style="fill:#6AAF50;" cx="256" cy="255.997" r="255.997"/>
<path style="fill:#4D8538;" d="M327.847,126.576h-66.799v136.381l-10.089-10.089h-66.799v73.757l-10.089-10.089h-66.799v45.548  l-0.188,0.188l13.757,13.757h-13.568v9.394h0.072l-0.035,0.035l125.481,125.482c7.649,0.687,15.388,1.059,23.215,1.059  c126.382,0,231.362-91.586,252.22-212.005L404.736,196.507h-6.958L327.847,126.576z M124.654,385.423h1.925"/>
<g>
	<rect x="337.933" y="196.504" style="fill:#FFFFFF;" width="66.799" height="165.951"/>
	<rect x="261.045" y="126.577" style="fill:#FFFFFF;" width="66.799" height="235.887"/>
	<rect x="184.156" y="252.869" style="fill:#FFFFFF;" width="66.799" height="109.595"/>
	<rect x="107.268" y="316.532" style="fill:#FFFFFF;" width="66.799" height="45.925"/>
	<rect x="107.268" y="376.025" style="fill:#FFFFFF;" width="297.465" height="9.394"/>
</g>
<g>
</g>
<g>
</g>
<g>
</g>
<g>
</g>
<g>
</g>
<g>
</g>
<g>
</g>
<g>
</g>
<g>
</g>
<g>
</g>
<g>
</g>
<g>
</g>
<g>
</g>
<g>
</g>
<g>
</g>
</svg>
