<?xml version="1.0" encoding="iso-8859-1"?>
<!-- Generator: Adobe Illustrator 19.0.0, SVG Export Plug-In . SVG Version: 6.00 Build 0)  -->
<svg xmlns="http://www.w3.org/2000/svg" xmlns:xlink="http://www.w3.org/1999/xlink" version="1.1" id="Capa_1" x="0px" y="0px" viewBox="0 0 512.001 512.001" style="enable-background:new 0 0 512.001 512.001;" xml:space="preserve">
<circle style="fill:#5F98D1;" cx="255.997" cy="256" r="255.997"/>
<path style="fill:#3B74AD;" d="M395.091,125h-93.482l-48.52-48.52h-53.049v8.41h-36.229c-11.771,0-21.349,9.578-21.349,21.349V125  h-25.554l-2.587,128.093l9.704,9.704h-20.378c0,4.823,1.955,9.19,5.116,12.351l68.089,68.089l0,0l69.384,69.384  c-1.384,2.471-4.024,4.145-7.058,4.145h-54.342v18.761l76.41,76.41c138.961-2.796,250.753-116.303,250.753-255.934  c0-4.872-0.149-9.709-0.418-14.513L395.091,125z"/>
<g>
	<path style="fill:#FFFFFF;" d="M395.091,125H152.814v-18.761c0-6.063,4.933-10.998,10.998-10.998h36.229v12.292h53.048V76.48   H200.04v8.41h-36.229c-11.771,0-21.349,9.578-21.349,21.349V125h-25.554l-2.587,128.093h283.357L395.091,125z"/>
	<path style="fill:#FFFFFF;" d="M121.114,280.264h269.771c9.647,0,17.467-7.821,17.467-17.467H103.647   C103.647,272.443,111.467,280.264,121.114,280.264z"/>
	<path style="fill:#FFFFFF;" d="M264.734,286.733h-17.467V408.68c0,4.466-3.621,8.086-8.086,8.086h-54.342v18.761h142.326v-18.76   h-54.342c-4.466,0-8.086-3.621-8.087-8.086L264.734,286.733z"/>
</g>
<g>
</g>
<g>
</g>
<g>
</g>
<g>
</g>
<g>
</g>
<g>
</g>
<g>
</g>
<g>
</g>
<g>
</g>
<g>
</g>
<g>
</g>
<g>
</g>
<g>
</g>
<g>
</g>
<g>
</g>
</svg>
