<?xml version="1.0" encoding="iso-8859-1"?>
<!-- Generator: Adobe Illustrator 19.0.0, SVG Export Plug-In . SVG Version: 6.00 Build 0)  -->
<svg xmlns="http://www.w3.org/2000/svg" xmlns:xlink="http://www.w3.org/1999/xlink" version="1.1" id="Capa_1" x="0px" y="0px" viewBox="0 0 512 512" style="enable-background:new 0 0 512 512;" xml:space="preserve">
<circle style="fill:#DF871E;" cx="256" cy="256" r="256"/>
<path style="fill:#C27526;" d="M211.762,227.004L347.64,362.881h-8.81L207.38,231.431c-2.686,2.708-5.391,5.43-8.139,8.177  c-33.708,33.708-62.264,65.422-79.856,87.978l35.295,35.295h-8.81l-30.309-30.309c-11.387,15.137-16.922,25.295-14.42,27.796  l2.513,2.513H97.35v10.073l138.235,138.235C242.32,511.721,249.128,512,256,512c117.736,0,216.893-79.486,246.776-187.717  L320.003,141.51C306.459,127.965,265.952,172.161,211.762,227.004z"/>
<g>
	<path style="fill:#FFFFFF;" d="M128.939,345.949l-13.376-13.375c-11.387,15.137-16.922,25.295-14.42,27.796   C103.644,362.872,113.803,357.335,128.939,345.949z"/>
	<path style="fill:#FFFFFF;" d="M221.905,262.272c2.747-2.747,5.471-5.452,8.179-8.136l-22.704-22.704   c-2.686,2.708-5.391,5.43-8.139,8.177c-33.708,33.708-62.264,65.422-79.856,87.978l14.542,14.542   C156.482,324.536,188.197,295.978,221.905,262.272z"/>
	<path style="fill:#FFFFFF;" d="M310.321,171.77c1.173,3.103,0.52,6.744-1.974,9.238l-48.865,48.865   c-6.847,6.847-11.005,15.934-11.711,25.589c-0.101,1.381,0.422,2.664,1.329,3.572c0.75,0.75,1.763,1.244,2.902,1.327   c2.522,0.184,4.718-1.71,4.901-4.232c0.546-7.464,3.761-14.488,9.054-19.781l48.865-48.865c6.482-6.482,6.921-16.745,1.333-23.749   c6.587-10.038,8.468-17.604,3.846-22.225c-13.544-13.544-54.051,30.652-108.241,85.494l22.75,22.75   C266.471,218.222,294.887,191.407,310.321,171.77z"/>
	<rect x="97.349" y="362.878" style="fill:#FFFFFF;" width="317.302" height="10.073"/>
</g>
<g>
</g>
<g>
</g>
<g>
</g>
<g>
</g>
<g>
</g>
<g>
</g>
<g>
</g>
<g>
</g>
<g>
</g>
<g>
</g>
<g>
</g>
<g>
</g>
<g>
</g>
<g>
</g>
<g>
</g>
</svg>
