<?xml version="1.0" encoding="iso-8859-1"?>
<!-- Generator: Adobe Illustrator 19.0.0, SVG Export Plug-In . SVG Version: 6.00 Build 0)  -->
<svg xmlns="http://www.w3.org/2000/svg" xmlns:xlink="http://www.w3.org/1999/xlink" version="1.1" id="Capa_1" x="0px" y="0px" viewBox="0 0 511.993 511.993" style="enable-background:new 0 0 511.993 511.993;" xml:space="preserve">
<circle style="fill:#3E3E42;" cx="255.997" cy="255.997" r="255.997"/>
<path style="fill:#2D2E30;" d="M421.798,212.047c-1.357,1.018-2.29,2.29-2.799,3.816l-19.069,49.246l-51.273-51.273  c-0.455-0.622-1.029-1.197-1.725-1.726c-1.399-1.059-3.161-1.59-5.279-1.59h-22.518l1.366,3.4l-44.236-44.236h-13.994  c-1.698,0-3.053,0.445-4.071,1.336c-1.018,0.89-1.739,2.057-2.163,3.498l-5.979,37.528l-20.991,3.053v11.068  c0,1.952,0.55,3.415,1.653,4.389l18.191,18.191v2.147l-78.479-78.479c-9.801,0.301-19.514,4.182-26.995,11.662  c-7.482,7.482-11.362,17.194-11.662,26.995l9.581,9.581c-7.877,0.426-15.838-1.105-23.13-4.593  c-4.911-2.349-10.135-3.46-15.486-3.091c-23.803,1.643-41.102,31.918-38.638,67.622c1.365,19.787,9.863,36.986,20.47,48.169  l-0.023,0.023l182.945,182.945c130.139-5.753,235.015-108.658,243.88-237.965l-63.244-63.244h-21.373  C424.806,210.521,423.153,211.029,421.798,212.047z"/>
<g>
	<path style="fill:#8A8A91;" d="M182.326,261.011c0-13.494,7.392-25.523,18.285-32.196c-6.749-9.261-15.683-15.146-25.799-15.844   c-5.355-0.369-10.583,0.743-15.497,3.096c-12.989,6.218-28.096,6.209-41.087-0.005c-4.911-2.349-10.135-3.46-15.486-3.091   c-23.803,1.643-41.102,31.917-38.638,67.622c2.463,35.704,28.136,63.014,47.56,61.674c2.578-0.178,5.196-0.872,7.792-2.025   c12.291-5.46,26.349-5.465,38.639-0.002c2.597,1.154,5.216,1.849,7.796,2.027c16.226,1.119,36.8-17.76,44.576-44.815   C194.418,293.127,182.326,278.271,182.326,261.011z"/>
	<path style="fill:#8A8A91;" d="M143.438,184.079c-7.482,7.482-11.362,17.193-11.662,26.995c9.801-0.301,19.514-4.182,26.995-11.662   c7.482-7.482,11.362-17.194,11.662-26.995C160.632,172.717,150.92,176.597,143.438,184.079z"/>
	<path style="fill:#8A8A91;" d="M282.498,342.316c-10.772,0-19.063-3.032-24.871-9.096c-5.81-6.063-8.714-14.608-8.714-25.634   V232.02h-14.247c-1.526,0-2.843-0.487-3.944-1.463c-1.104-0.974-1.653-2.437-1.653-4.389V215.1l20.991-3.053l5.979-37.528   c0.423-1.441,1.145-2.608,2.163-3.498c1.018-0.89,2.373-1.336,4.071-1.336h13.994v42.617h36.001v19.718h-36.001v73.658   c0,4.665,1.145,8.227,3.435,10.686c2.289,2.461,5.343,3.689,9.159,3.689c2.119,0,3.944-0.274,5.47-0.827   c1.526-0.551,2.841-1.145,3.944-1.781c1.101-0.636,2.055-1.229,2.863-1.781c0.806-0.551,1.59-0.827,2.353-0.827   c1.526,0,2.755,0.849,3.69,2.544l8.142,13.358c-4.242,3.733-9.246,6.595-15.012,8.587   C294.54,341.318,288.604,342.316,282.498,342.316z"/>
	<path style="fill:#8A8A91;" d="M448.131,210.521L395.973,340.28h-24.68l-52.159-129.759h22.517c2.119,0,3.88,0.53,5.279,1.59   c1.4,1.061,2.31,2.312,2.735,3.753l28.751,75.566c1.187,3.563,2.246,7.083,3.181,10.56c0.933,3.479,1.737,6.997,2.418,10.559   c0.678-3.562,1.504-7.06,2.481-10.495c0.974-3.435,2.055-6.975,3.244-10.623l29.26-75.566c0.508-1.526,1.441-2.799,2.799-3.816   c1.355-1.018,3.009-1.526,4.96-1.526L448.131,210.521L448.131,210.521z"/>
</g>
<g>
</g>
<g>
</g>
<g>
</g>
<g>
</g>
<g>
</g>
<g>
</g>
<g>
</g>
<g>
</g>
<g>
</g>
<g>
</g>
<g>
</g>
<g>
</g>
<g>
</g>
<g>
</g>
<g>
</g>
</svg>
