<?xml version="1.0" encoding="iso-8859-1"?>
<!-- Generator: Adobe Illustrator 19.0.0, SVG Export Plug-In . SVG Version: 6.00 Build 0)  -->
<svg xmlns="http://www.w3.org/2000/svg" xmlns:xlink="http://www.w3.org/1999/xlink" version="1.1" id="Capa_1" x="0px" y="0px" viewBox="0 0 512.007 512.007" style="enable-background:new 0 0 512.007 512.007;" xml:space="preserve">
<circle style="fill:#F7F7F7;" cx="256.003" cy="256.003" r="256.003"/>
<path style="fill:#D9D8DB;" d="M512,256c0-6.249-0.236-12.441-0.675-18.577L382.679,108.778  c-16.932-16.932-40.323-27.405-66.16-27.405c-24.5,0-46.79,9.427-63.469,24.838c-14.208-5.246-29.568-8.115-45.598-8.115  c-72.712,0-131.656,58.945-131.656,131.656c0,49.224,27.019,92.131,67.03,114.72c-1.363,5.42-2.096,11.092-2.095,16.936  c0,19.114,7.747,36.418,20.273,48.944l101.563,101.563C400.917,508.434,512,395.189,512,256z"/>
<circle style="fill:#F7DC4D;" cx="316.517" cy="174.935" r="93.57"/>
<circle style="fill:#804B9D;" cx="209.953" cy="361.414" r="69.219"/>
<circle style="fill:#5F98D1;" cx="207.449" cy="229.749" r="131.654"/>
<circle style="fill:#DE4D97;" cx="335.929" cy="312.248" r="100.274"/>
<g>
</g>
<g>
</g>
<g>
</g>
<g>
</g>
<g>
</g>
<g>
</g>
<g>
</g>
<g>
</g>
<g>
</g>
<g>
</g>
<g>
</g>
<g>
</g>
<g>
</g>
<g>
</g>
<g>
</g>
</svg>
