<?xml version="1.0" encoding="iso-8859-1"?>
<!-- Generator: Adobe Illustrator 19.0.0, SVG Export Plug-In . SVG Version: 6.00 Build 0)  -->
<svg xmlns="http://www.w3.org/2000/svg" xmlns:xlink="http://www.w3.org/1999/xlink" version="1.1" id="Capa_1" x="0px" y="0px" viewBox="0 0 512.007 512.007" style="enable-background:new 0 0 512.007 512.007;" xml:space="preserve">
<circle style="fill:#F7F7F7;" cx="256.003" cy="256.003" r="256.003"/>
<path style="fill:#D9D8DB;" d="M394.572,116.619l-0.022,0.022c-18.247-18.141-40.023-32.733-64.227-42.628l0,0  c-0.661-0.27-1.318-0.546-1.982-0.809l0,0c-22.099-8.753-46.165-13.607-71.35-13.732l0,0c-0.331-0.002-1.65-0.002-1.982,0l0,0  c-25.184,0.124-49.251,4.979-71.35,13.732l0,0c-0.664,0.263-1.321,0.54-1.982,0.809l0,0c-27.429,11.213-51.763,28.438-71.35,50.049  l0,0c-0.668,0.737-1.325,1.486-1.982,2.234c-34.267,38.979-52.23,90.224-48.368,143.989c-0.372,2.602,2.944,63.762,48.368,115.421  c2.743,3.128,5.568,6.134,8.455,9.043l116.215,116.214C240.589,511.636,248.251,512,256,512c141.385,0,256-114.615,256-256  c0-7.751-0.365-15.415-1.039-22.992L394.572,116.619z"/>
<circle style="fill:#2D2E30;" cx="256.003" cy="256.003" r="196.545"/>
<path style="fill:#3E3E42;" d="M59.978,270.284C67.296,372.162,152.257,452.542,256,452.542  c108.547,0,196.542-87.995,196.542-196.542c0-12.86-1.249-25.426-3.607-37.597l-31.407,17.777l-15.856,49.548l-34.684-60.449  l-23.322,10.901l-14.335-45.254l-24.774,63.009l-23.783,2.478l-24.774,39.226l-32.702-19.819l-19.819-55.494l-20.81,55.494  l-31.711-20.81l-16.847,23.783l-26.756,5.946L59.978,270.284z"/>
<g>
	<path style="fill:#FFFFFF;" d="M255.009,452.53c0.331,0.002,0.66,0.013,0.991,0.013c0.331,0,0.66-0.011,0.991-0.013V59.47   c-0.331-0.002-0.66-0.013-0.991-0.013c-0.331,0-0.66,0.011-0.991,0.013V452.53z"/>
	<path style="fill:#FFFFFF;" d="M181.678,437.988c0.661,0.27,1.318,0.547,1.982,0.809V73.203c-0.664,0.263-1.321,0.539-1.982,0.809   V437.988z"/>
	<path style="fill:#FFFFFF;" d="M108.346,385.705c0.658,0.747,1.313,1.497,1.982,2.234V124.062   c-0.668,0.737-1.325,1.486-1.982,2.234V385.705z"/>
	<path style="fill:#FFFFFF;" d="M401.672,387.939c0.668-0.737,1.325-1.486,1.982-2.234v-259.41   c-0.658-0.747-1.313-1.497-1.982-2.234V387.939z"/>
</g>
<path style="fill:#73A8DB;" d="M328.34,438.797c0.664-0.263,1.321-0.539,1.982-0.809V74.012c-0.661-0.27-1.318-0.547-1.982-0.809  V438.797z"/>
<path style="fill:#FFFFFF;" d="M448.639,216.862l-32.351,18.312l-15.005,46.891l-33.688-58.71l-23.024,10.762l-15.09-47.636  l-25.978,66.07l-23.602,2.459l-24.38,38.602l-31.003-18.789l-21.008-58.822l-21.584,57.556l-31.356-20.577l-17.344,24.486  l-25.814,5.737l-47.537-14.502c0.067,1.06,0.136,2.12,0.221,3.176l47.198,14.399l27.696-6.155l16.349-23.08l32.066,21.044  l20.037-53.433l18.454,51.67l0.177,0.498l34.401,20.849l25.169-39.849l23.964-2.496l23.57-59.947l13.581,42.872l23.619-11.04  l35.681,62.187l16.706-52.205l30.464-17.244C449.039,218.915,448.846,217.886,448.639,216.862z"/>
<circle style="fill:#73A8DB;" cx="329.333" cy="190.926" r="14.867"/>
<g>
</g>
<g>
</g>
<g>
</g>
<g>
</g>
<g>
</g>
<g>
</g>
<g>
</g>
<g>
</g>
<g>
</g>
<g>
</g>
<g>
</g>
<g>
</g>
<g>
</g>
<g>
</g>
<g>
</g>
</svg>
