<?xml version="1.0" encoding="iso-8859-1"?>
<!-- Generator: Adobe Illustrator 19.0.0, SVG Export Plug-In . SVG Version: 6.00 Build 0)  -->
<svg xmlns="http://www.w3.org/2000/svg" xmlns:xlink="http://www.w3.org/1999/xlink" version="1.1" id="Capa_1" x="0px" y="0px" viewBox="0 0 512.007 512.007" style="enable-background:new 0 0 512.007 512.007;" xml:space="preserve">
<circle style="fill:#EDEDEE;" cx="256.003" cy="256.003" r="256.003"/>
<path style="fill:#DFDEE1;" d="M399.874,121.554c-14.075-16.749-35.169-27.403-58.759-27.403H170.886  c-16.843,0-32.408,5.44-45.063,14.64c-6.187,5.517-12.029,11.414-17.479,17.661c-8.926,12.541-14.193,27.867-14.193,44.433v170.229  c0,16.566,5.267,31.891,14.193,44.433c2.809,3.221,5.726,6.343,8.737,9.373l-0.003,0.003l116.049,116.049  C240.664,511.639,248.289,512,256,512c141.385,0,256-114.615,256-256c0-7.889-0.377-15.688-1.075-23.395L399.874,121.554z"/>
<path style="fill:#FFFFFF;" d="M417.848,170.886c0-42.379-34.355-76.734-76.734-76.734H170.886c-16.843,0-32.408,5.441-45.063,14.64  c-6.187,5.517-12.029,11.414-17.479,17.661c-8.926,12.541-14.193,27.867-14.193,44.433v170.229c0,16.566,5.267,31.891,14.193,44.433  c5.45,6.249,11.291,12.144,17.479,17.661c12.655,9.2,28.22,14.641,45.063,14.641h170.229c42.379,0,76.734-34.355,76.734-76.734  V170.886z"/>
<g>
	<circle style="fill:#DF871E;" cx="154.556" cy="153.659" r="19.653"/>
	<path style="fill:#DF871E;" d="M173.701,172.809c-5.116,5.116-11.915,7.931-19.149,7.931c-7.233,0-14.034-2.817-19.149-7.931   s-7.931-11.915-7.931-19.149c0-7.233,2.816-14.033,7.931-19.149c5.115-5.115,11.915-7.931,19.149-7.931   c14.931,0,27.079,12.149,27.08,27.08C181.633,160.895,178.816,167.694,173.701,172.809z M138.192,137.301   c-4.37,4.37-6.777,10.18-6.777,16.361s2.407,11.99,6.777,16.361s10.18,6.776,16.361,6.777c6.18,0,11.99-2.407,16.361-6.777   s6.777-10.18,6.777-16.361c-0.001-12.757-10.38-23.137-23.137-23.137C148.373,130.524,142.562,132.93,138.192,137.301z"/>
</g>
<g>
	<circle style="fill:#8C5BA4;" cx="154.556" cy="358.328" r="19.653"/>
	<path style="fill:#8C5BA4;" d="M173.701,377.479c-5.115,5.115-11.915,7.931-19.149,7.931c-14.932,0-27.08-12.148-27.08-27.08   c0-7.233,2.817-14.034,7.931-19.149c5.115-5.115,11.915-7.931,19.149-7.931c7.233,0,14.034,2.817,19.149,7.931   s7.931,11.915,7.931,19.149C181.632,365.563,178.816,372.364,173.701,377.479z M138.192,341.969   c-4.37,4.37-6.777,10.18-6.777,16.361c0.001,12.757,10.38,23.137,23.137,23.138c6.18,0,11.99-2.407,16.361-6.777   c4.37-4.37,6.777-10.18,6.777-16.361c0-6.18-2.407-11.99-6.777-16.361c-4.37-4.37-10.18-6.777-16.361-6.777   C148.372,335.193,142.562,337.6,138.192,341.969z"/>
</g>
<g>
	<circle style="fill:#8DC652;" cx="154.556" cy="290.105" r="19.653"/>
	<path style="fill:#8DC652;" d="M173.701,309.256c-5.115,5.115-11.915,7.931-19.149,7.931c-14.931,0-27.079-12.149-27.08-27.08   c0-7.234,2.817-14.034,7.931-19.149c5.116-5.116,11.915-7.932,19.149-7.931c7.233,0,14.034,2.816,19.149,7.931   c5.115,5.115,7.931,11.915,7.93,19.149C181.633,297.34,178.816,304.14,173.701,309.256z M138.192,273.747   c-4.37,4.37-6.777,10.18-6.777,16.361c0.001,12.757,10.379,23.136,23.137,23.137c6.18,0,11.99-2.407,16.361-6.777   c4.37-4.37,6.777-10.18,6.777-16.361c0-6.18-2.407-11.99-6.776-16.361c-4.37-4.37-10.18-6.777-16.361-6.777   C148.372,266.97,142.562,269.377,138.192,273.747z"/>
</g>
<g>
	<circle style="fill:#497FC1;" cx="154.556" cy="221.882" r="19.653"/>
	<path style="fill:#497FC1;" d="M173.701,241.032c-5.116,5.116-11.915,7.931-19.149,7.931c-7.233,0-14.034-2.816-19.149-7.931   c-5.115-5.115-7.931-11.915-7.931-19.149c0-7.233,2.816-14.033,7.931-19.149c5.115-5.115,11.915-7.931,19.148-7.93   c7.233,0,14.034,2.817,19.149,7.931c5.115,5.115,7.931,11.915,7.931,19.149C181.633,229.118,178.816,235.917,173.701,241.032z    M138.192,205.523c-4.37,4.37-6.777,10.18-6.777,16.361s2.407,11.99,6.777,16.361c4.37,4.37,10.18,6.777,16.361,6.777   c6.18,0,11.989-2.407,16.361-6.777c4.37-4.37,6.776-10.18,6.776-16.36c0-6.18-2.407-11.99-6.777-16.361   c-4.37-4.37-10.18-6.776-16.361-6.777C148.372,198.747,142.562,201.153,138.192,205.523z"/>
</g>
<g>
	<rect x="200.696" y="187.652" style="fill:#8A8A91;" width="217.16" height="4.929"/>
	<path style="fill:#8A8A91;" d="M399.875,121.554H200.692v4.929h202.987C402.473,124.79,401.21,123.142,399.875,121.554z"/>
	<rect x="200.696" y="253.746" style="fill:#8A8A91;" width="217.16" height="4.929"/>
	<rect x="200.696" y="319.839" style="fill:#8A8A91;" width="217.16" height="4.929"/>
	<path style="fill:#8A8A91;" d="M403.381,385.935H200.692v4.929h198.821C400.868,389.275,402.157,387.631,403.381,385.935z"/>
</g>
<g>
</g>
<g>
</g>
<g>
</g>
<g>
</g>
<g>
</g>
<g>
</g>
<g>
</g>
<g>
</g>
<g>
</g>
<g>
</g>
<g>
</g>
<g>
</g>
<g>
</g>
<g>
</g>
<g>
</g>
</svg>
