<?xml version="1.0" encoding="iso-8859-1"?>
<!-- Generator: Adobe Illustrator 19.0.0, SVG Export Plug-In . SVG Version: 6.00 Build 0)  -->
<svg xmlns="http://www.w3.org/2000/svg" xmlns:xlink="http://www.w3.org/1999/xlink" version="1.1" id="Capa_1" x="0px" y="0px" viewBox="0 0 512 512" style="enable-background:new 0 0 512 512;" xml:space="preserve">
<circle style="fill:#EDEDEE;" cx="256" cy="256" r="256"/>
<path style="fill:#DFDEE1;" d="M395.26,116.904l-0.002,0.002c-13.881-13.923-33.072-22.548-54.253-22.547H170.994  c-26.976,0-43.167,11.123-59.125,28.556c-9.557,10.41-15.415,25.257-17.016,39.416c-0.022,0.211-0.277,2.741-0.277,2.954  c0,0-0.218-0.965-0.218,19.692v5.908v47.262c0,7.473,0,65.683,0,74.961c0,9.692,0,18.21,0,27.897  c0,19.114,7.245,36.87,17.365,47.918h-0.025c0.666,0.727,3.672,3.934,5.635,5.908l116.175,116.175  C240.922,511.651,248.419,512,256,512c141.385,0,256-114.615,256-256c0-7.903-0.377-15.715-1.078-23.435L395.26,116.904z"/>
<path style="fill:#FFFFFF;" d="M417.641,170.995c0-42.325-34.311-76.636-76.636-76.636H170.995  c-16.821,0-32.366,5.434-45.005,14.622c-6.179,5.51-12.013,11.399-17.456,17.638c-8.915,12.525-14.175,27.831-14.175,44.376V339.2  c0,43.322,35.119,78.441,78.441,78.441H332.9c46.802,0,84.742-37.94,84.742-84.742L417.641,170.995L417.641,170.995z"/>
<path style="fill:#F7D24D;" d="M108.533,126.62c-7.879,11.07-12.896,24.316-13.957,38.666h322.831c0-0.002,0-0.003,0-0.005  c-2.936-39.783-36.164-70.922-76.401-70.922H170.995c-16.821,0-32.366,5.434-45.005,14.622  C119.81,114.491,113.976,120.379,108.533,126.62z"/>
<g>
	<path style="fill:#8A8A91;" d="M94.414,168.239h323.158c-0.071-1.99-0.212-3.96-0.431-5.908H94.853   C94.633,164.279,94.484,166.249,94.414,168.239z"/>
	<rect x="94.356" y="238.149" style="fill:#8A8A91;" width="323.279" height="5.908"/>
	<rect x="94.356" y="313.108" style="fill:#8A8A91;" width="323.279" height="5.908"/>
	<path style="fill:#8A8A91;" d="M112.135,388.923c1.691,2.06,3.483,4.031,5.371,5.908h276.987c1.887-1.877,3.681-3.848,5.371-5.908   H112.135z"/>
	<path style="fill:#8A8A91;" d="M417.64,190.885h-5.547v-5.908h5.547V190.885z M402.15,190.885h-5.966v-5.908h5.966V190.885z    M386.243,190.885h-5.966v-5.908h5.966V190.885z M370.336,190.885h-5.966v-5.908h5.966V190.885z M354.428,190.885h-5.966v-5.908   h5.966V190.885z M338.52,190.885h-5.966v-5.908h5.966V190.885z M322.613,190.885h-5.966v-5.908h5.966V190.885z M306.706,190.885   h-5.966v-5.908h5.966V190.885z M290.798,190.885h-5.966v-5.908h5.966V190.885z M274.89,190.885h-5.966v-5.908h5.966V190.885z    M258.982,190.885h-5.966v-5.908h5.966V190.885z M243.075,190.885h-5.965v-5.908h5.965V190.885z M227.167,190.885h-5.966v-5.908   h5.966V190.885z M211.26,190.885h-5.966v-5.908h5.966V190.885z M195.353,190.885h-5.965v-5.908h5.965V190.885z M179.445,190.885   h-5.966v-5.908h5.966V190.885z M163.538,190.885h-5.966v-5.908h5.966V190.885z M147.629,190.885h-5.966v-5.908h5.966V190.885z    M131.723,190.885h-5.966v-5.908h5.966V190.885z M115.814,190.885h-5.966v-5.908h5.966V190.885z M99.907,190.885h-5.548v-5.908   h5.548V190.885z"/>
</g>
<g>
</g>
<g>
</g>
<g>
</g>
<g>
</g>
<g>
</g>
<g>
</g>
<g>
</g>
<g>
</g>
<g>
</g>
<g>
</g>
<g>
</g>
<g>
</g>
<g>
</g>
<g>
</g>
<g>
</g>
</svg>
