<?xml version="1.0" encoding="iso-8859-1"?>
<!-- Generator: Adobe Illustrator 19.0.0, SVG Export Plug-In . SVG Version: 6.00 Build 0)  -->
<svg xmlns="http://www.w3.org/2000/svg" xmlns:xlink="http://www.w3.org/1999/xlink" version="1.1" id="Capa_1" x="0px" y="0px" viewBox="0 0 512 512" style="enable-background:new 0 0 512 512;" xml:space="preserve">
<circle style="fill:#EDEDEE;" cx="256" cy="256" r="256"/>
<path style="fill:#DFDEE1;" d="M396.331,116.216c-14.051-14.2-33.506-22.897-54.858-22.899c-0.003,0-0.005,0-0.008,0  c-18.946,0-171.329,0-171.329,0c-17.792,0-36.638,6.321-50.006,19.017c-4.521,4.292-8.84,8.793-12.94,13.493  c-8.984,12.622-14.284,28.047-14.284,44.72v171.329c0,16.673,5.301,32.097,14.284,44.72c2.826,3.24,5.76,6.381,8.788,9.428  l-0.005,0.005l114.73,114.73C239.026,511.572,247.463,512,256,512c141.384,0,256-114.616,256-256c0-8.56-0.429-17.02-1.25-25.365  L396.331,116.216z"/>
<path style="fill:#79C6BF;" d="M418.694,170.547c0-42.653-34.577-77.23-77.23-77.23H170.136c-16.952,0-32.617,5.476-45.354,14.735  c-6.227,5.553-12.106,11.487-17.592,17.775c-8.984,12.622-14.284,28.047-14.284,44.72v171.329c0,16.673,5.301,32.097,14.284,44.72  c5.485,6.289,11.364,12.223,17.592,17.775c12.736,9.26,28.402,14.736,45.354,14.736h171.329c42.653,0,77.23-34.577,77.23-77.23  L418.694,170.547L418.694,170.547z"/>
<path style="fill:#2D2E30;" d="M107.19,125.827c-8.984,12.622-14.284,28.047-14.284,44.72v20.142h325.788v-20.142  c0-42.653-34.577-77.23-77.23-77.23H170.136c-16.952,0-32.617,5.476-45.354,14.735C118.554,113.604,112.675,119.538,107.19,125.827z  "/>
<g>
	<polygon style="fill:#FFFFFF;" points="154.761,190.687 96.763,190.687 143.558,141.936 201.557,141.936  "/>
	<polygon style="fill:#FFFFFF;" points="267.216,190.687 209.217,190.687 256.013,141.936 314.012,141.936  "/>
	<path style="fill:#FFFFFF;" d="M413.197,141.936h-44.73l-46.795,48.751h57.999l36.837-38.377   C415.646,148.749,414.534,145.286,413.197,141.936z"/>
	<path style="fill:#FFFFFF;" d="M413.249,142.068c-11.338-28.553-39.194-48.751-71.785-48.751h-19.791l46.795,48.751H413.249z"/>
	<polygon style="fill:#FFFFFF;" points="256.013,142.067 314.012,142.067 267.216,93.316 209.217,93.316  "/>
	<path style="fill:#FFFFFF;" d="M156.015,94.623c-11.507,2.132-22.122,6.805-31.234,13.429c-2.492,2.222-4.911,4.521-7.288,6.862   l26.064,27.154h57.999L156.015,94.623z"/>
</g>
<g>
</g>
<g>
</g>
<g>
</g>
<g>
</g>
<g>
</g>
<g>
</g>
<g>
</g>
<g>
</g>
<g>
</g>
<g>
</g>
<g>
</g>
<g>
</g>
<g>
</g>
<g>
</g>
<g>
</g>
</svg>
