<?xml version="1.0" encoding="iso-8859-1"?>
<!-- Generator: Adobe Illustrator 19.0.0, SVG Export Plug-In . SVG Version: 6.00 Build 0)  -->
<svg xmlns="http://www.w3.org/2000/svg" xmlns:xlink="http://www.w3.org/1999/xlink" version="1.1" id="Capa_1" x="0px" y="0px" viewBox="0 0 512 512" style="enable-background:new 0 0 512 512;" xml:space="preserve">
<circle style="fill:#2D2E30;" cx="255.997" cy="255.997" r="255.997"/>
<path style="fill:#1D1D1F;" d="M395.125,117.172l-0.002,0.002C359.544,81.52,310.35,59.458,256,59.458  C147.453,59.458,59.459,147.453,59.459,256c0,54.349,22.062,103.544,57.716,139.123l-0.002,0.002l115.836,115.836  c7.576,0.675,15.24,1.04,22.991,1.04c141.385,0,256-114.615,256-256c0-7.751-0.365-15.415-1.04-22.991L395.125,117.172z"/>
<circle style="fill:#FFFFFF;" cx="255.997" cy="255.997" r="196.538"/>
<circle style="fill:#2D2E30;" cx="255.997" cy="255.997" r="14.535"/>
<circle style="fill:#FFFFFF;" cx="255.997" cy="255.997" r="196.538"/>
<g>
	<circle style="fill:#2D2E30;" cx="255.997" cy="255.997" r="14.535"/>
	<path style="fill:#2D2E30;" d="M252.216,119.655v4.488H230.6v-4.488h8.26c0-27.307-0.031-25.633,0.083-27.536l-6.361,5.37   c-1.005,0.796-2.224,0.488-2.754-0.221l-1.845-2.588l11.951-10.27l4.819,0.001v35.246L252.216,119.655z"/>
	<path style="fill:#2D2E30;" d="M282.972,118.553c1.336,0.001,2.065,0.877,2.065,2.01v3.58l-26.821-0.001v-2.01   c0-0.861,0.337-1.768,1.047-2.478c14.552-14.585,18.998-17.887,19-24.231c0-3.897-2.359-6.335-6.388-6.333   c-2.472,0-4.755,1.072-6.018,3.097c-0.394,0.634-0.684,1.327-0.867,2.08c-0.568,1.552-1.362,1.962-2.947,1.68l-3.112-0.551   c0.276-1.872,0.794-3.515,1.556-4.928c2.37-4.398,6.719-6.416,11.716-6.416c6.936,0,12.118,4.242,12.116,11.179   c0.003,7.327-5.004,11.104-17.65,24.039c1.466-0.408,3.13-0.716,4.654-0.714L282.972,118.553z"/>
	<path style="fill:#2D2E30;" d="M251.907,404.417c1.728-0.977,3.776-1.543,6.03-1.541c6.653-0.003,11.703,4.55,11.702,11.84   c0.001,7.268-5.568,13.163-13.822,13.163c-7.97-0.001-13.41-5.239-13.411-13.77c0-6.931,4.819-11.95,14.485-24.919   c0.575-0.758,1.756-1.405,3.166-1.405h5.232C256.099,399.192,252.677,403.426,251.907,404.417z M255.708,422.976   c4.661,0,8.042-3.198,8.04-7.821c0.001-4.979-3.295-7.762-7.82-7.765c-4.681,0-7.819,3.381-7.82,7.683   C248.107,420.138,251.135,422.975,255.708,422.976z"/>
	<path style="fill:#2D2E30;" d="M401.926,247.071c1.088-7.388,6.251-11.347,13.273-11.344c6.583-0.001,11.759,3.842,11.757,10.187   c0,4.855-2.253,7.579-6.526,8.978c5.07,1.474,7.38,4.752,7.38,9.334c0.003,7.524-6.053,12.034-13.41,12.033   c-7.624,0.001-11.467-3.456-13.63-10.436l2.561-1.074c1.236-0.534,2.678-0.428,3.277,0.771c1.148,2.304,2.646,5.701,7.71,5.7   c4.67,0.001,7.572-3.238,7.572-6.801c-0.001-3.883-1.353-6.774-9.609-6.774v-4.269c4.974-0.053,8.922-1.464,8.922-6.443   c-0.001-3.687-2.22-6.168-6.333-6.168c-3.504-0.001-6.157,2.076-6.912,5.177c-0.53,1.551-1.333,1.962-2.918,1.679L401.926,247.071z   "/>
	<path style="fill:#2D2E30;" d="M101.118,257.7c-0.954,0.68-2.019,1.198-3.193,1.557c-7.085,2.152-14.788-1.981-14.788-10.864   c0-6.97,5.426-12.666,13.355-12.667c7.95,0.003,12.912,5.383,12.915,12.97c0,3.09-0.738,6.132-2.659,9.43   c-1.049,1.81-1.001,1.665-11.22,16.315c-0.62,0.91-1.852,1.377-3.056,1.377h-5.425C100.891,258.122,100.395,258.81,101.118,257.7z    M89.058,247.953c-0.001,4.746,2.676,7.296,7.159,7.296c4.321,0.002,7.518-2.82,7.518-7.214c0-4.66-3.095-7.406-7.325-7.406   C92.012,240.629,89.058,243.674,89.058,247.953z"/>
	<path style="fill:#2D2E30;" d="M356.291,146.653v4.488h-21.616v-4.489h8.261c0-27.085-0.031-25.65,0.083-27.536l-6.362,5.369   c-0.991,0.794-2.2,0.518-2.753-0.22l-1.845-2.589l11.951-10.27h4.818v35.247L356.291,146.653L356.291,146.653z"/>
	<path style="fill:#2D2E30;" d="M174.283,146.653v4.488h-21.616v-4.489h8.261c0-27.085-0.031-25.65,0.083-27.536l-6.362,5.369   c-0.986,0.789-2.201,0.517-2.753-0.22l-1.845-2.589l11.951-10.27h4.818v35.247L174.283,146.653L174.283,146.653z"/>
	<path style="fill:#2D2E30;" d="M206.225,146.653v4.488h-21.616v-4.488h8.26c0-27.307-0.031-25.633,0.083-27.536l-6.361,5.37   c-0.996,0.789-2.205,0.509-2.755-0.221l-1.845-2.589l11.951-10.27h4.818v35.246L206.225,146.653z"/>
	<path style="fill:#2D2E30;" d="M128.698,201.302v4.488h-21.616v-4.489h8.261c0-27.085-0.031-25.65,0.083-27.536l-6.362,5.369   c-0.991,0.794-2.2,0.518-2.753-0.22l-1.845-2.589l11.951-10.27h4.818v35.247h7.463V201.302z"/>
	<path style="fill:#2D2E30;" d="M162.787,185.965c-0.001,10.588-4.02,20.24-14.484,20.24c-10.46-0.002-14.427-9.735-14.428-20.24   c0-10.635,3.991-20.264,14.428-20.266C158.744,165.702,162.785,175.454,162.787,185.965z M156.673,185.965   c0.001-6.846-1.495-15.28-8.371-15.283c-6.891,0-8.343,8.419-8.343,15.282c0.001,6.881,1.459,15.283,8.343,15.283   C155.177,201.245,156.674,192.812,156.673,185.965z"/>
	<path style="fill:#2D2E30;" d="M404.984,200.2c1.327,0.001,2.066,0.871,2.065,2.011v3.58h-26.821v-2.01   c0.001-0.852,0.332-1.763,1.046-2.478c14.549-14.581,18.998-17.886,19-24.231c-0.003-4.096-2.547-6.333-6.388-6.334   c-3.315,0-6.084,1.872-6.884,5.178c-0.574,1.563-1.372,1.96-2.947,1.679l-3.111-0.551c1.091-7.428,6.276-11.346,13.272-11.344   c7.03,0,12.115,4.329,12.116,11.179c0,7.23-4.715,10.806-17.651,24.038c1.446-0.402,3.131-0.716,4.654-0.715L404.984,200.2z"/>
	<path style="fill:#2D2E30;" d="M405.068,335.657l-0.001,3.414c0.001,0.677-0.417,1.211-1.266,1.212h-4.213v10.024h-5.149v-10.024   l-17.156-0.001c-0.878,0.001-1.501-0.585-1.679-1.293l-0.605-3.029l19.027-25.333h5.563v25.03L405.068,335.657z M394.44,335.657   c-0.001-15.825-0.079-15.571,0.248-18.284l-13.328,18.283L394.44,335.657z"/>
	<path style="fill:#2D2E30;" d="M127.595,329.627c4.937,1.523,7.323,4.874,7.324,9.665c-0.001,7.309-5.94,11.456-13.575,11.455   c-7.576,0.001-13.576-4.103-13.574-11.455c-0.001-4.809,2.4-8.148,7.324-9.665c-4.001-1.592-5.976-4.68-5.977-8.867   c0.001-6.277,5.302-10.546,12.227-10.546c7.08,0,12.226,4.463,12.227,10.547C133.57,324.965,131.576,328.042,127.595,329.627z    M121.344,346.066c4.81,0.001,7.492-2.882,7.491-6.884c0.001-4.612-2.96-7.049-7.49-7.049c-4.514,0-7.491,2.444-7.49,7.049   C113.854,343.175,116.541,346.066,121.344,346.066z M121.344,314.758c-4.023-0.001-6.473,2.467-6.471,6.113   c0,3.909,2.217,6.553,6.471,6.553c4.298,0.001,6.471-2.649,6.471-6.553C127.813,317.009,125.092,314.757,121.344,314.758z"/>
	<path style="fill:#2D2E30;" d="M195.754,366.478v2.616c0.001,1.119-0.151,1.903-0.743,3.084l-15.668,31.887   c-0.713,1.518-1.853,2.066-3.167,2.065h-4.268c17.325-34.026,16.465-32.644,17.843-34.228h-19.799   c-0.75-0.001-1.377-0.67-1.376-1.404v-4.02L195.754,366.478z"/>
	<path style="fill:#2D2E30;" d="M328.041,383.11c1.712-0.362,3.457-0.578,5.259-0.579c7.808,0.001,12.723,4.704,12.722,12.033   c0.001,8.404-6.171,13.987-14.512,13.988c-4.34,0-8.309-1.682-11.344-4.46l1.816-2.534c0.703-1.001,1.8-1.038,2.864-0.386   c2.694,1.663,4.469,2.342,6.995,2.342c5.222-0.001,8.261-3.515,8.261-8.647c-0.003-4.551-2.643-7.435-8.041-7.435   c-1.956,0.001-3.993,0.321-6.085,1.02l-3.69-1.046l3.248-18.945h19.193v2.561c0.001,1.739-1.028,2.864-3.469,2.864h-11.62   L328.041,383.11z"/>
	
		<rect x="277.925" y="78.631" transform="matrix(-0.9421 -0.3354 0.3354 -0.9421 498.4304 427.1684)" style="fill:#2D2E30;" width="16.351" height="183.829"/>
	
		<rect x="244.085" y="255.503" transform="matrix(-0.9975 -0.0702 0.0702 -0.9975 482.1696 635.9645)" style="fill:#2D2E30;" width="16.35" height="108.012"/>
</g>
<rect x="217.058" y="270.124" transform="matrix(-0.9699 -0.2436 0.2436 -0.9699 575.2958 618.3259)" style="fill:#E25F3F;" width="217.641" height="6.937"/>
<g>
</g>
<g>
</g>
<g>
</g>
<g>
</g>
<g>
</g>
<g>
</g>
<g>
</g>
<g>
</g>
<g>
</g>
<g>
</g>
<g>
</g>
<g>
</g>
<g>
</g>
<g>
</g>
<g>
</g>
</svg>
