<?xml version="1.0" encoding="iso-8859-1"?>
<!-- Generator: Adobe Illustrator 19.0.0, SVG Export Plug-In . SVG Version: 6.00 Build 0)  -->
<svg xmlns="http://www.w3.org/2000/svg" xmlns:xlink="http://www.w3.org/1999/xlink" version="1.1" id="Capa_1" x="0px" y="0px" viewBox="0 0 512 512" style="enable-background:new 0 0 512 512;" xml:space="preserve">
<circle style="fill:#ACACB2;" cx="256" cy="256" r="256"/>
<path style="fill:#797882;" d="M309.462,125.531H202.538l-8.132,34.697h-8.685L163.592,138.1h-29.387v13.808l8.32,8.32h-33.635  v29.74l0,0l8.144,8.144h-8.143v150.827l7.79,7.79h-7.79v29.74l0,0l124.529,124.529C240.861,511.648,248.389,512,256,512  c137.092,0,249.011-107.762,255.681-243.2L403.109,160.228h-58.95L309.462,125.531z"/>
<g>
	<rect x="108.894" y="356.73" style="fill:#3E3E42;" width="294.222" height="29.741"/>
	<rect x="108.894" y="160.232" style="fill:#3E3E42;" width="294.222" height="29.741"/>
	<path style="fill:#3E3E42;" d="M108.891,198.112v150.827H403.11V198.112H108.891z M256,336.547   c-34.75,0-63.021-28.272-63.021-63.021S221.25,210.504,256,210.504s63.021,28.272,63.021,63.021S290.75,336.547,256,336.547z"/>
	<path style="fill:#3E3E42;" d="M256,221.126c-28.892,0-52.4,23.507-52.4,52.4s23.507,52.4,52.4,52.4s52.4-23.507,52.4-52.4   S284.892,221.126,256,221.126z"/>
</g>
<circle style="fill:#F7DC4D;" cx="323.025" cy="217.827" r="9.313"/>
<g>
	<polygon style="fill:#3E3E42;" points="309.462,125.531 202.538,125.531 191.916,170.85 320.084,170.85  "/>
	<rect x="134.207" y="138.102" style="fill:#3E3E42;" width="29.387" height="13.808"/>
</g>
<g>
</g>
<g>
</g>
<g>
</g>
<g>
</g>
<g>
</g>
<g>
</g>
<g>
</g>
<g>
</g>
<g>
</g>
<g>
</g>
<g>
</g>
<g>
</g>
<g>
</g>
<g>
</g>
<g>
</g>
</svg>
