<?xml version="1.0" encoding="iso-8859-1"?>
<!-- Generator: Adobe Illustrator 19.0.0, SVG Export Plug-In . SVG Version: 6.00 Build 0)  -->
<svg xmlns="http://www.w3.org/2000/svg" xmlns:xlink="http://www.w3.org/1999/xlink" version="1.1" id="Capa_1" x="0px" y="0px" viewBox="0 0 512.002 512.002" style="enable-background:new 0 0 512.002 512.002;" xml:space="preserve">
<circle style="fill:#F7F7F7;" cx="256.001" cy="256" r="256"/>
<path style="fill:#D9D8DB;" d="M389.346,121.677L389.346,121.677c-16.816-16.816-43.786-17.285-61.173-1.414l-40.84-40.84  c-0.001-0.001-0.002-0.002-0.004-0.004l-1.021-1.021l-0.025,0.025c-7.923-7.425-18.568-11.979-30.283-11.979l0,0  c-24.471,0-44.308,19.837-44.308,44.308v37.302l-26.377-26.377c-17.304-17.304-45.357-17.304-62.661,0s-17.304,45.357,0,62.661  l26.377,26.377H111.73c-24.471,0-44.308,19.837-44.308,44.308l0,0c0,11.715,4.554,22.36,11.979,30.283l-0.025,0.025l41.865,41.865  c-15.871,17.388-15.402,44.356,1.414,61.173l0,0L246.08,511.792c3.294,0.125,6.597,0.21,9.921,0.21c141.385,0,256-114.615,256-256  c0-4.008-0.104-7.992-0.287-11.955L389.346,121.677z"/>
<path style="fill:#DF871E;" d="M256.001,236.781L256.001,236.781c-24.471,0-44.308-19.837-44.308-44.308v-81.723  c0-24.471,19.837-44.308,44.308-44.308l0,0c24.471,0,44.308,19.837,44.308,44.308v81.723  C300.309,216.944,280.472,236.781,256.001,236.781z"/>
<path style="fill:#4C6BB3;" d="M256.001,443.6L256.001,443.6c-24.471,0-44.308-19.837-44.308-44.308v-81.723  c0-24.471,19.837-44.308,44.308-44.308l0,0c24.471,0,44.308,19.837,44.308,44.308v81.723  C300.309,423.763,280.472,443.6,256.001,443.6z"/>
<path style="fill:#8DC652;" d="M274.241,255.021L274.241,255.021c0-24.471,19.837-44.308,44.308-44.308h81.723  c24.471,0,44.308,19.837,44.308,44.308l0,0c0,24.471-19.837,44.308-44.308,44.308h-81.723  C294.078,299.329,274.241,279.492,274.241,255.021z"/>
<path style="fill:#DE4D97;" d="M67.423,255.021L67.423,255.021c0-24.471,19.837-44.308,44.308-44.308h81.723  c24.471,0,44.308,19.837,44.308,44.308l0,0c0,24.471-19.837,44.308-44.308,44.308H111.73  C87.26,299.329,67.423,279.492,67.423,255.021z"/>
<path style="fill:#F7DC4D;" d="M268.898,242.124L268.898,242.124c-17.304-17.304-17.304-45.357,0-62.661l57.787-57.787  c17.304-17.304,45.357-17.304,62.661,0l0,0c17.304,17.304,17.304,45.357,0,62.661l-57.787,57.787  C314.256,259.427,286.202,259.427,268.898,242.124z"/>
<path style="fill:#6AAF50;" d="M331.559,242.124l31.41-31.41h-44.421c-21.791,0-39.894,15.735-43.601,36.459  C292.223,259.207,316.151,257.532,331.559,242.124z"/>
<path style="fill:#E5BF2B;" d="M263.849,236.074c20.724-3.706,36.459-21.81,36.459-43.601v-44.421l-31.41,31.41  C253.49,194.871,251.815,218.799,263.849,236.074z"/>
<path style="fill:#8C5BA4;" d="M122.657,388.367L122.657,388.367c-17.304-17.304-17.304-45.357,0-62.661l57.787-57.787  c17.304-17.304,45.357-17.304,62.661,0l0,0c17.304,17.304,17.304,45.357,0,62.661l-57.787,57.787  C168.014,405.669,139.959,405.669,122.657,388.367z"/>
<path style="fill:#4E53A3;" d="M211.693,317.569v44.421l31.41-31.41c15.408-15.408,17.083-39.335,5.049-56.611  C227.428,277.674,211.693,295.778,211.693,317.569z"/>
<path style="fill:#773D97;" d="M180.443,267.919l-31.41,31.41h44.421c21.791,0,39.894-15.735,43.601-36.459  C219.779,250.836,195.851,252.511,180.443,267.919z"/>
<path style="fill:#38979E;" d="M268.898,267.919L268.898,267.919c17.304-17.304,45.357-17.304,62.661,0l57.787,57.787  c17.304,17.304,17.304,45.357,0,62.661l0,0c-17.304,17.304-45.357,17.304-62.661,0l-57.787-57.787  C251.595,313.276,251.595,285.222,268.898,267.919z"/>
<path style="fill:#348A7A;" d="M331.559,267.919c-15.408-15.408-39.335-17.083-56.611-5.049  c3.706,20.724,21.81,36.459,43.601,36.459h44.421L331.559,267.919z"/>
<path style="fill:#30767A;" d="M263.849,273.968c-12.034,17.275-10.359,41.203,5.049,56.611l31.41,31.41v-44.421  C300.309,295.778,284.574,277.674,263.849,273.968z"/>
<path style="fill:#E57654;" d="M122.656,121.677L122.656,121.677c17.304-17.304,45.357-17.304,62.661,0l57.787,57.787  c17.304,17.304,17.304,45.357,0,62.661l0,0c-17.304,17.304-45.357,17.304-62.661,0l-57.787-57.787  C105.353,167.034,105.353,138.979,122.656,121.677z"/>
<path style="fill:#DE3205;" d="M237.054,247.173c-3.706-20.724-21.81-36.459-43.601-36.459h-44.421l31.41,31.41  C195.851,257.532,219.779,259.207,237.054,247.173z"/>
<path style="fill:#E25F3F;" d="M248.153,236.074c12.034-17.275,10.359-41.203-5.049-56.611l-31.41-31.41v44.421  C211.693,214.264,227.428,232.368,248.153,236.074z"/>
<g>
</g>
<g>
</g>
<g>
</g>
<g>
</g>
<g>
</g>
<g>
</g>
<g>
</g>
<g>
</g>
<g>
</g>
<g>
</g>
<g>
</g>
<g>
</g>
<g>
</g>
<g>
</g>
<g>
</g>
</svg>
