<?xml version="1.0" encoding="iso-8859-1"?>
<!-- Generator: Adobe Illustrator 19.0.0, SVG Export Plug-In . SVG Version: 6.00 Build 0)  -->
<svg xmlns="http://www.w3.org/2000/svg" xmlns:xlink="http://www.w3.org/1999/xlink" version="1.1" id="Capa_1" x="0px" y="0px" viewBox="0 0 512 512" style="enable-background:new 0 0 512 512;" xml:space="preserve">
<circle style="fill:#F7F7F7;" cx="256" cy="256" r="256"/>
<path style="fill:#DFDFE1;" d="M356.448,120.792c-0.37,0.269-0.634,0.606-0.791,1.009l-5.149,12.772l-13.764-13.764  c-0.326-0.281-0.791-0.42-1.395-0.42h-6.287l7.621,17.422l-14.396-14.396c-1.043-1.165-2.332-2.068-3.867-2.707  c-1.536-0.639-3.29-0.958-5.262-0.958c-2.156,0-4.186,0.306-6.103,0.891l-15.718-15.718h-7.229v18.46  c-1.121-1.143-2.388-2.034-3.8-2.673c-1.413-0.639-3.127-0.958-5.145-0.958c-2.265,0-4.31,0.454-6.136,1.362  s-3.379,2.163-4.656,3.766c-1.278,1.603-2.259,3.491-2.942,5.665c-0.288,0.917-0.502,1.876-0.669,2.86l-9.955-9.955  c-0.975-1.143-2.174-2.028-3.598-2.656c-1.424-0.627-3.077-0.941-4.96-0.941c-1.188,0-2.286,0.123-3.296,0.37  c-1.008,0.247-1.961,0.594-2.857,1.042c-0.897,0.449-1.744,0.981-2.538,1.597c-0.267,0.207-0.525,0.433-0.785,0.656l-2.243-2.243  c-0.156-0.273-0.365-0.476-0.62-0.62l-0.049-0.049l-0.017,0.017c-0.276-0.141-0.591-0.232-0.976-0.232h-4.371v8.808l-8.808-8.808  h-7.229v14.794l-14.794-14.794h-4.741l-9.616-9.616c-1.682-1.614-3.681-2.858-6.002-3.732c-2.32-0.874-4.87-1.312-7.648-1.312  c-2.465,0-4.663,0.381-6.59,1.143c-1.928,0.762-3.548,1.776-4.858,3.042c-1.312,1.266-2.309,2.718-2.993,4.354  c-0.684,1.636-1.025,3.329-1.025,5.078c0,2.197,0.324,4.029,0.975,5.497c0.65,1.468,1.507,2.701,2.572,3.698l17.452,17.452  c-0.188,0.217-0.388,0.424-0.607,0.62c-1.558,1.39-3.76,2.084-6.607,2.084c-1.748,0-3.25-0.24-4.506-0.723  c-1.256-0.481-2.326-1.009-3.211-1.58c-0.885-0.572-1.642-1.099-2.27-1.58c-0.627-0.481-1.199-0.723-1.714-0.723  c-0.381,0-0.729,0.09-1.043,0.269c-0.314,0.18-0.571,0.426-0.773,0.739l-2.286,3.766l178.003,178.003l-10.267,10.394  L190.268,211.622h-9.678l-52.775,46.581l3.742,5.161l46.323,46.323v75.743h-41.937v9.549l116.982,116.981  C253.95,511.972,254.972,512,256,512c137.153,0,249.109-107.859,255.688-243.381L394.873,151.804l-7.877-7.877l-23.539-23.539  h-5.783C357.226,120.388,356.817,120.523,356.448,120.792z"/>
<g>
	<path style="fill:#E25F3F;" d="M177.39,114.538c-0.246,0.404-0.504,0.701-0.773,0.891c-0.269,0.191-0.606,0.286-1.009,0.286   c-0.426,0-0.902-0.179-1.429-0.538c-0.527-0.358-1.178-0.757-1.951-1.193c-0.774-0.437-1.687-0.841-2.74-1.21   c-1.054-0.37-2.309-0.555-3.766-0.555c-1.345,0-2.528,0.168-3.548,0.505c-1.02,0.337-1.878,0.806-2.572,1.412   c-0.695,0.606-1.216,1.317-1.564,2.135c-0.348,0.818-0.521,1.709-0.521,2.673c0,1.233,0.325,2.259,0.975,3.077   c0.65,0.818,1.507,1.519,2.572,2.101c1.064,0.584,2.28,1.093,3.648,1.53c1.367,0.437,2.763,0.903,4.186,1.395   c1.424,0.493,2.819,1.054,4.187,1.681c1.367,0.628,2.584,1.424,3.648,2.388c1.064,0.964,1.922,2.141,2.573,3.53   c0.65,1.39,0.975,3.083,0.975,5.078c0,2.151-0.37,4.17-1.11,6.052s-1.81,3.525-3.211,4.926c-1.401,1.401-3.127,2.505-5.178,3.311   c-2.051,0.807-4.387,1.21-7.01,1.21c-1.547,0-3.054-0.151-4.522-0.454c-1.468-0.302-2.869-0.729-4.202-1.278   c-1.334-0.549-2.584-1.216-3.749-2.001c-1.166-0.785-2.208-1.658-3.127-2.622l2.286-3.766c0.202-0.314,0.459-0.56,0.773-0.739   c0.314-0.179,0.661-0.269,1.043-0.269c0.516,0,1.087,0.241,1.714,0.723c0.627,0.481,1.384,1.008,2.27,1.58   c0.885,0.571,1.955,1.099,3.211,1.58s2.757,0.723,4.506,0.723c2.847,0,5.049-0.694,6.607-2.084c1.558-1.389,2.337-3.306,2.337-5.75   c0-1.367-0.325-2.482-0.975-3.346c-0.651-0.863-1.508-1.585-2.572-2.169c-1.064-0.582-2.281-1.075-3.648-1.479   c-1.368-0.404-2.757-0.835-4.17-1.295c-1.412-0.459-2.802-0.996-4.17-1.614c-1.368-0.616-2.584-1.424-3.648-2.421   c-1.064-0.997-1.922-2.23-2.572-3.698c-0.65-1.468-0.975-3.3-0.975-5.497c0-1.749,0.341-3.441,1.025-5.078   c0.683-1.636,1.682-3.088,2.993-4.354c1.311-1.266,2.93-2.28,4.858-3.042c1.928-0.762,4.125-1.143,6.59-1.143   c2.78,0,5.33,0.437,7.648,1.312c2.32,0.874,4.32,2.118,6.002,3.732L177.39,114.538z"/>
	<path style="fill:#E25F3F;" d="M215.687,120.388v34.295h-4.371c-0.964,0-1.58-0.459-1.849-1.378l-0.538-3.194   c-0.718,0.762-1.474,1.457-2.27,2.084c-0.796,0.628-1.642,1.166-2.538,1.614c-0.897,0.449-1.855,0.796-2.875,1.042   c-1.02,0.247-2.113,0.37-3.278,0.37c-1.883,0-3.542-0.314-4.976-0.941s-2.64-1.513-3.615-2.656   c-0.975-1.143-1.709-2.516-2.202-4.119c-0.494-1.602-0.739-3.367-0.739-5.295v-21.821h7.229v21.821c0,2.309,0.532,4.102,1.597,5.38   c1.064,1.278,2.684,1.917,4.858,1.917c1.591,0,3.077-0.364,4.455-1.093c1.378-0.728,2.673-1.731,3.883-3.009v-25.016h7.227V120.388   z"/>
	<path style="fill:#E25F3F;" d="M231.254,124.928c0.739-0.762,1.507-1.451,2.303-2.068s1.641-1.148,2.538-1.597   c0.896-0.448,1.849-0.796,2.857-1.042c1.009-0.246,2.107-0.37,3.296-0.37c1.883,0,3.536,0.314,4.96,0.941   c1.424,0.627,2.622,1.513,3.598,2.656c0.975,1.143,1.709,2.517,2.203,4.119c0.492,1.603,0.739,3.368,0.739,5.295v21.821h-7.196   v-21.821c0-2.308-0.533-4.102-1.597-5.38c-1.064-1.278-2.685-1.916-4.858-1.916c-1.614,0-3.11,0.369-4.489,1.11   c-1.378,0.739-2.673,1.748-3.883,3.026v24.982h-7.229v-34.295h4.371c0.986,0,1.614,0.46,1.883,1.378L231.254,124.928z"/>
	<path style="fill:#E25F3F;" d="M291.337,104.922v49.761h-4.371c-0.964,0-1.58-0.459-1.849-1.378l-0.639-3.732   c-1.435,1.682-3.065,3.038-4.892,4.068c-1.826,1.032-3.95,1.547-6.371,1.547c-1.929,0-3.677-0.386-5.246-1.16   c-1.568-0.773-2.914-1.899-4.035-3.379c-1.121-1.479-1.989-3.311-2.605-5.497c-0.617-2.186-0.925-4.691-0.925-7.515   c0-2.555,0.341-4.92,1.025-7.094c0.684-2.174,1.665-4.063,2.942-5.665s2.83-2.858,4.657-3.766c1.826-0.908,3.872-1.362,6.136-1.362   c2.017,0,3.732,0.319,5.145,0.958c1.412,0.639,2.678,1.53,3.8,2.673v-18.46C284.109,104.922,291.337,104.922,291.337,104.922z    M284.109,128.828c-1.009-1.3-2.119-2.208-3.329-2.723c-1.21-0.516-2.522-0.774-3.934-0.774c-2.824,0-5.032,1.037-6.624,3.11   c-1.592,2.074-2.387,5.139-2.387,9.196c0,2.107,0.179,3.906,0.538,5.396c0.358,1.492,0.874,2.707,1.547,3.648   c0.672,0.941,1.491,1.626,2.455,2.051c0.964,0.426,2.051,0.639,3.262,0.639c1.838,0,3.423-0.398,4.758-1.193   s2.573-1.922,3.716-3.379v-15.97H284.109z"/>
	<path style="fill:#E25F3F;" d="M299.305,125.163c3.877-3.609,8.495-5.413,13.853-5.413c1.972,0,3.726,0.319,5.262,0.958   c1.535,0.639,2.824,1.541,3.867,2.707c1.042,1.166,1.838,2.55,2.387,4.152c0.549,1.603,0.823,3.379,0.823,5.33v21.788h-3.228   c-0.695,0-1.222-0.106-1.58-0.319c-0.359-0.213-0.662-0.644-0.908-1.295l-0.706-2.79c-0.874,0.785-1.737,1.485-2.59,2.101   c-0.852,0.617-1.731,1.138-2.639,1.564c-0.908,0.426-1.883,0.745-2.925,0.958c-1.042,0.213-2.191,0.319-3.446,0.319   c-1.39,0-2.684-0.191-3.883-0.571c-1.199-0.381-2.236-0.958-3.11-1.731c-0.874-0.774-1.564-1.732-2.068-2.875   c-0.504-1.143-0.756-2.488-0.756-4.035c0-1.322,0.353-2.611,1.058-3.867c0.706-1.255,1.872-2.381,3.497-3.379   c1.625-0.996,3.766-1.821,6.423-2.471c2.655-0.65,5.934-1.02,9.834-1.11v-2.286c0-2.465-0.527-4.304-1.58-5.514   c-1.054-1.21-2.6-1.816-4.64-1.816c-1.39,0-2.555,0.174-3.497,0.521c-0.941,0.348-1.76,0.723-2.455,1.126   c-0.695,0.404-1.311,0.779-1.849,1.126s-1.11,0.521-1.714,0.521c-0.494,0-0.914-0.129-1.261-0.387   c-0.349-0.258-0.634-0.577-0.858-0.958L299.305,125.163z M318.471,139.687c-2.578,0.091-4.753,0.297-6.523,0.622   c-1.771,0.325-3.206,0.739-4.304,1.244c-1.099,0.505-1.888,1.105-2.371,1.799c-0.481,0.695-0.723,1.457-0.723,2.286   c0,0.806,0.129,1.497,0.386,2.068c0.258,0.572,0.616,1.043,1.076,1.413c0.459,0.37,0.996,0.639,1.614,0.806   c0.616,0.168,1.295,0.252,2.034,0.252c1.883,0,3.502-0.352,4.859-1.058c1.356-0.706,2.673-1.732,3.95-3.077v-6.355H318.471z"/>
	<path style="fill:#E25F3F;" d="M363.458,120.388l-18.896,44.047c-0.247,0.515-0.544,0.919-0.891,1.21   c-0.349,0.291-0.88,0.437-1.597,0.437h-5.346l6.321-13.719l-13.987-31.975h6.287c0.606,0,1.07,0.14,1.395,0.42   c0.325,0.281,0.565,0.61,0.723,0.992l8.17,19.468c0.202,0.56,0.387,1.116,0.555,1.665c0.167,0.549,0.33,1.116,0.487,1.697   c0.179-0.582,0.358-1.154,0.538-1.714c0.179-0.56,0.381-1.12,0.606-1.682l7.835-19.433c0.157-0.404,0.42-0.739,0.791-1.009   c0.369-0.269,0.779-0.404,1.227-0.404C357.674,120.388,363.458,120.388,363.458,120.388z"/>
</g>
<path d="M230.139,385.432v9.549h-94.195v-9.549h41.937V237.3c0-2.923,0.129-6.02,0.387-9.291l-40.258,35.743  c-1.206,1.032-2.409,1.419-3.614,1.161c-1.205-0.258-2.151-0.774-2.839-1.548l-3.742-5.161l52.775-46.581h9.678v173.808  L230.139,385.432L230.139,385.432z"/>
<path d="M379.427,383.367c1.375,0,2.452,0.409,3.226,1.226c0.774,0.818,1.162,1.871,1.162,3.162v7.226H266.007v-4.387  c0-0.945,0.235-1.913,0.71-2.904c0.472-0.988,1.097-1.826,1.871-2.517l62.323-63.098c5.161-5.246,9.936-10.323,14.323-15.226  c4.387-4.903,8.194-9.849,11.42-14.839c3.226-4.988,5.741-10.107,7.548-15.355c1.807-5.246,2.71-10.839,2.71-16.775  c0-6.71-1.12-12.537-3.356-17.484c-2.238-4.946-5.206-9.01-8.903-12.193c-3.699-3.181-8-5.548-12.903-7.097  c-4.903-1.548-9.98-2.323-15.226-2.323c-5.765,0-11.077,0.883-15.936,2.645c-4.861,1.764-9.162,4.216-12.903,7.355  c-3.742,3.141-6.838,6.883-9.29,11.226c-2.452,4.345-4.151,9.097-5.096,14.258c-0.603,1.893-1.399,3.142-2.387,3.743  c-0.991,0.603-2.345,0.818-4.064,0.645l-6.323-1.032c1.117-7.827,3.268-14.795,6.451-20.903c3.182-6.108,7.226-11.269,12.129-15.484  c4.903-4.214,10.581-7.419,17.033-9.613c6.451-2.194,13.419-3.291,20.903-3.291c6.968,0,13.613,1.012,19.936,3.033  c6.322,2.022,11.914,5.077,16.774,9.162c4.859,4.086,8.71,9.205,11.549,15.355c2.839,6.151,4.258,13.354,4.258,21.612  c0,6.883-1.055,13.271-3.162,19.162c-2.109,5.893-4.968,11.549-8.581,16.968c-3.613,5.419-7.806,10.69-12.58,15.807  c-4.774,5.119-9.786,10.344-15.032,15.678L283.04,385.43c2.752-0.687,5.613-1.203,8.581-1.548c2.968-0.343,5.956-0.516,8.968-0.516  L379.427,383.367L379.427,383.367z"/>
<g>
</g>
<g>
</g>
<g>
</g>
<g>
</g>
<g>
</g>
<g>
</g>
<g>
</g>
<g>
</g>
<g>
</g>
<g>
</g>
<g>
</g>
<g>
</g>
<g>
</g>
<g>
</g>
<g>
</g>
</svg>
